
<svg width="100" height="100" viewBox="0 0 100 100" xmlns="http://www.w3.org/2000/svg">
  <path d="M10,10 L90,10 L90,90 L10,90 Z" fill="none" stroke="currentColor" stroke-width="1"/>
  <circle cx="10" cy="10" r="2" fill="currentColor"/>
  <circle cx="90" cy="10" r="2" fill="currentColor"/>
  <circle cx="90" cy="90" r="2" fill="currentColor"/>
  <circle cx="10" cy="90" r="2" fill="currentColor"/>
  <circle cx="50" cy="50" r="3" fill="currentColor"/>
  <path d="M10,10 L50,50 L10,90" fill="none" stroke="currentColor" stroke-width="1"/>
  <path d="M90,10 L50,50 L90,90" fill="none" stroke="currentColor" stroke-width="1"/>
  <circle cx="30" cy="30" r="2" fill="currentColor"/>
  <circle cx="70" cy="30" r="2" fill="currentColor"/>
  <circle cx="30" cy="70" r="2" fill="currentColor"/>
  <circle cx="70" cy="70" r="2" fill="currentColor"/>
  <path d="M30,30 L50,50 L30,70" fill="none" stroke="currentColor" stroke-width="1"/>
  <path d="M70,30 L50,50 L70,70" fill="none" stroke="currentColor" stroke-width="1"/>
</svg>
